<svg width="36" height="36" viewBox="0 0 36 36" fill="none" xmlns="http://www.w3.org/2000/svg">
<path d="M27.2254 15.828C26.72 16.3364 26.3331 16.95 26.092 17.6249C25.851 18.3 25.7618 19.0199 25.8307 19.7333L25.8067 19.7093C25.8776 20.5492 25.7643 21.3943 25.4748 22.1859C25.1854 22.9773 24.7267 23.6961 24.1308 24.2921C23.5348 24.888 22.816 25.3468 22.0244 25.6361C21.233 25.9256 20.3878 26.0389 19.548 25.968L19.572 25.992C18.5675 25.8985 17.5586 26.1171 16.6827 26.618C15.807 27.1189 15.107 27.8777 14.6783 28.7911C14.2496 29.7044 14.113 30.7276 14.2871 31.7215C14.4614 32.7152 14.9378 33.6311 15.6515 34.3441C16.3652 35.0572 17.2815 35.5328 18.2754 35.706C19.2694 35.8793 20.2924 35.7417 21.2054 35.3123C22.1183 34.8827 22.8764 34.1821 23.3766 33.3059C23.8767 32.4296 24.0944 31.4205 24 30.416L24.0254 30.44C23.9544 29.6003 24.0676 28.7551 24.3571 27.9635C24.6466 27.172 25.1054 26.4532 25.7012 25.8572C26.2972 25.2613 27.016 24.8025 27.8075 24.5132C28.5991 24.2237 29.4442 24.1104 30.284 24.1813L30.2587 24.1573C31.0792 24.2311 31.9052 24.0965 32.66 23.7661C33.4147 23.4357 34.0739 22.9201 34.5763 22.2672C35.0787 21.6143 35.4083 20.8449 35.5342 20.0308C35.6602 19.2165 35.5786 18.3837 35.297 17.6093C35.0154 16.8351 34.5428 16.1444 33.9232 15.6013C33.3036 15.0583 32.557 14.6804 31.7524 14.5028C30.9479 14.3252 30.1115 14.3535 29.3208 14.5851C28.5302 14.8168 27.8108 15.2443 27.2294 15.828H27.2254Z" fill="#394149"/>
<path d="M17.3894 22.848L17.364 22.824C18.0778 22.8959 18.7986 22.8083 19.4744 22.5675C20.1502 22.3267 20.764 21.9388 21.2715 21.4317C21.7788 20.9247 22.1674 20.3111 22.4086 19.6355C22.6499 18.9599 22.738 18.2392 22.6667 17.5253L22.692 17.5493C22.6211 16.7095 22.7344 15.8644 23.0238 15.0728C23.3132 14.2813 23.772 13.5625 24.3679 12.9665C24.9639 12.3707 25.6827 11.9119 26.4742 11.6225C27.2658 11.333 28.1108 11.2198 28.9507 11.2907L28.9254 11.2667C29.93 11.3611 30.9392 11.1431 31.8155 10.6428C32.6919 10.1425 33.3924 9.38396 33.8218 8.4708C34.2511 7.55765 34.3883 6.53428 34.2147 5.54027C34.0411 4.54625 33.5651 3.63001 32.8515 2.91649C32.138 2.20299 31.2218 1.72693 30.2278 1.55331C29.2338 1.37967 28.2104 1.51688 27.2972 1.94624C26.384 2.37559 25.6256 3.07619 25.1252 3.95247C24.6248 4.82873 24.407 5.83803 24.5014 6.84267L24.4774 6.81733C24.5484 7.65719 24.4354 8.50244 24.146 9.29407C23.8567 10.0857 23.3979 10.8046 22.802 11.4007C22.206 11.9965 21.4871 12.4553 20.6955 12.7447C19.9038 13.034 19.0586 13.1471 18.2187 13.076L18.2427 13.1013C17.529 13.0295 16.808 13.1171 16.1323 13.3579C15.4566 13.5985 14.8427 13.9865 14.3352 14.4936C13.8278 15.0007 13.4394 15.6143 13.198 16.2899C12.9568 16.9655 12.8687 17.6861 12.94 18.4L12.916 18.376C12.9867 19.2157 12.8732 20.0608 12.5838 20.8523C12.2942 21.6436 11.8355 22.3624 11.2396 22.9583C10.6437 23.5541 9.925 24.0128 9.13359 24.3024C8.34218 24.5919 7.49712 24.7053 6.65738 24.6347L6.68138 24.6587C5.67674 24.5643 4.66744 24.7821 3.79116 25.2825C2.9149 25.7829 2.2143 26.5413 1.78495 27.4545C1.35559 28.3677 1.21836 29.3911 1.392 30.3851C1.56564 31.3791 2.0417 32.2953 2.7552 33.0088C3.46872 33.7224 4.38496 34.1984 5.37898 34.372C6.37299 34.5456 7.39636 34.4084 8.30952 33.9791C9.22267 33.5497 9.98116 32.8492 10.4815 31.9729C10.9819 31.0965 11.1998 30.0873 11.1054 29.0827L11.1307 29.1067C11.0598 28.2668 11.1731 27.4217 11.4626 26.6301C11.7519 25.8387 12.2107 25.1199 12.8066 24.5239C13.4026 23.928 14.1214 23.4692 14.9128 23.1799C15.7044 22.8904 16.5495 22.7771 17.3894 22.848Z" fill="#006B6A"/>
<path d="M8.45325 20.172C8.95861 19.6637 9.34552 19.0501 9.58637 18.3751C9.82722 17.7 9.91608 16.98 9.84658 16.2667L9.8719 16.2907C9.80097 15.4507 9.91425 14.6052 10.2039 13.8135C10.4935 13.0217 10.9524 12.3028 11.5487 11.7068C12.145 11.1108 12.864 10.6522 13.6559 10.3629C14.4478 10.0736 15.2933 9.9607 16.1333 10.032L16.1079 10.008C17.1122 10.1021 18.1211 9.88411 18.997 9.38379C19.8729 8.88349 20.573 8.12518 21.0022 7.21231C21.4312 6.29943 21.5683 5.27643 21.3947 4.28279C21.2211 3.28915 20.7451 2.37326 20.0319 1.66001C19.3187 0.946752 18.4027 0.470859 17.4091 0.297232C16.4155 0.123592 15.3925 0.260685 14.4797 0.689779C13.5667 1.11887 12.8085 1.8191 12.3082 2.69497C11.8078 3.57083 11.5898 4.57971 11.6839 5.58401L11.6599 5.56001C11.7308 6.39981 11.6175 7.24497 11.3281 8.03649C11.0386 8.82801 10.5799 9.54682 9.984 10.1428C9.38806 10.7387 8.66924 11.1974 7.87772 11.4868C7.0862 11.7763 6.24105 11.8896 5.40125 11.8187L5.42525 11.8427C4.60468 11.7691 3.7788 11.9039 3.02416 12.2344C2.26952 12.5649 1.61052 13.0807 1.10824 13.7337C0.605956 14.3867 0.276649 15.156 0.150809 15.9701C0.0249823 16.7844 0.106702 17.6172 0.388396 18.3913C0.670089 19.1656 1.14266 19.8561 1.7623 20.3991C2.38194 20.9421 3.12861 21.3199 3.93312 21.4975C4.73761 21.6749 5.57392 21.6465 6.36454 21.4149C7.15516 21.1832 7.87449 20.7557 8.4559 20.172H8.45325Z" fill="#394149"/>
</svg>
